<svg xmlns="http://www.w3.org/2000/svg" width="150px" height="45.189px" viewBox="0 0 150 45.189" preserveAspectRation='xMidYMid slice'>
<ellipse fill="#F58220" cx="49.165" cy="21.689" rx="31.112" ry="17.516"/>
<path fill="#47A5AE" d="M47.786,42.896C21.291,42.617,0,33.12,0,21.448S21.289,0.28,47.782,0C27.271,0.357,10.831,9.824,10.831,21.448C10.831,33.072,27.272,42.54,47.786,42.896L47.786,42.896z"/>
<path fill="#47A5AE" d="M84.189,26.758h6.354c0.64,0,1.158-0.123,1.56-0.373c0.401-0.251,0.64-0.598,0.707-1.032c0.057-0.374-0.033-0.686-0.27-0.945c-0.23-0.262-0.703-0.553-1.416-0.869l-2.357-1.018c-1.386-0.604-2.31-1.212-2.775-1.835c-0.461-0.624-0.62-1.421-0.473-2.387c0.186-1.201,0.75-2.121,1.697-2.76c0.946-0.64,2.217-0.956,3.801-0.956h5.435l-0.376,2.454h-6.135c-0.5,0-0.905,0.106-1.221,0.327c-0.314,0.22-0.5,0.531-0.562,0.93c-0.047,0.302,0.035,0.572,0.249,0.808c0.214,0.24,0.591,0.48,1.132,0.722l2.486,1.078c1.541,0.681,2.551,1.334,3.031,1.964c0.477,0.628,0.641,1.426,0.49,2.396c-0.208,1.354-0.869,2.367-1.979,3.026c-1.108,0.658-2.713,0.985-4.809,0.985h-4.958L84.189,26.758L84.189,26.758z"/>
<polygon fill="#47A5AE" points="97.826,29.273 100.082,14.583 102.719,14.583 100.463,29.273 "/>
<path fill="#47A5AE" d="M100.436,10.406c0.068-0.439,0.279-0.818,0.639-1.125c0.355-0.312,0.762-0.466,1.205-0.466c0.451,0,0.806,0.153,1.066,0.455c0.254,0.308,0.35,0.686,0.28,1.136c-0.069,0.454-0.283,0.843-0.634,1.16c-0.354,0.312-0.758,0.471-1.207,0.471c-0.434,0-0.788-0.159-1.057-0.481C100.467,11.24,100.368,10.856,100.436,10.406L100.436,10.406z"/>
<path fill="#47A5AE" d="M118.085,28.419c-0.366,2.387-1.325,4.269-2.88,5.638c-1.557,1.375-3.495,2.062-5.821,2.062c-0.711,0-1.436-0.072-2.176-0.21c-0.745-0.139-1.521-0.349-2.326-0.63l0.958-2.515c0.835,0.291,1.574,0.501,2.215,0.634c0.643,0.139,1.235,0.204,1.771,0.204c1.498,0,2.74-0.438,3.729-1.317c0.989-0.88,1.604-2.086,1.84-3.624l1.03-6.711c0.236-1.539-0.007-2.781-0.729-3.736c-0.721-0.956-1.777-1.432-3.163-1.432c-1.38,0-2.582,0.47-3.611,1.415c-1.028,0.946-1.655,2.162-1.885,3.65c-0.231,1.519,0.03,2.76,0.792,3.731c0.757,0.966,1.843,1.45,3.248,1.45c0.639,0,1.279-0.111,1.917-0.332c0.637-0.22,1.297-0.558,1.976-1.017l-0.435,2.831c-0.65,0.337-1.322,0.588-2.013,0.757c-0.686,0.163-1.397,0.245-2.123,0.245c-0.7,0-1.379-0.106-2.031-0.321c-0.657-0.215-1.234-0.517-1.73-0.904c-0.947-0.731-1.619-1.642-2.01-2.734c-0.389-1.094-0.482-2.311-0.277-3.645c0.338-2.198,1.312-4.013,2.916-5.449c1.61-1.433,3.483-2.147,5.621-2.147c1.404,0,2.639,0.354,3.695,1.063c1.062,0.711,1.812,1.682,2.251,2.919c0.199,0.562,0.315,1.17,0.336,1.835c0.026,0.665-0.065,1.656-0.269,2.975L118.085,28.419L118.085,28.419z"/>
<path fill="#47A5AE" d="M121.098,29.273l1.23-8.015c0.328-2.137,1.154-3.829,2.486-5.076s2.94-1.871,4.838-1.871c1.896,0,3.312,0.624,4.25,1.871c0.938,1.248,1.242,2.939,0.914,5.076l-1.231,8.015h-2.606l1.305-8.489c0.178-1.16-0.016-2.106-0.577-2.832c-0.558-0.73-1.376-1.095-2.444-1.095c-1.053,0-1.982,0.363-2.773,1.095c-0.797,0.726-1.284,1.672-1.463,2.832l-1.305,8.489H121.098L121.098,29.273z"/>
<path fill="#47A5AE" d="M136.682,26.758h6.354c0.639,0,1.158-0.123,1.561-0.373c0.401-0.251,0.639-0.598,0.705-1.032c0.059-0.374-0.033-0.686-0.269-0.945c-0.231-0.262-0.703-0.553-1.416-0.869l-2.358-1.018c-1.385-0.604-2.309-1.212-2.773-1.835c-0.463-0.624-0.621-1.421-0.473-2.387c0.184-1.201,0.75-2.121,1.696-2.76c0.946-0.64,2.217-0.956,3.802-0.956h5.434l-0.377,2.454h-6.133c-0.502,0-0.906,0.106-1.222,0.327c-0.315,0.22-0.501,0.531-0.563,0.93c-0.045,0.302,0.035,0.572,0.25,0.808c0.213,0.24,0.591,0.48,1.131,0.722l2.488,1.078c1.541,0.681,2.549,1.334,3.03,1.964c0.476,0.628,0.64,1.426,0.49,2.396c-0.208,1.354-0.869,2.367-1.978,3.026c-1.109,0.658-2.713,0.985-4.81,0.985h-4.957L136.682,26.758L136.682,26.758z"/>
<path fill="#F58220" d="M86.708,43.398l-0.153-0.694c-0.188,0.12-0.51,0.219-0.85,0.219c-0.771,0-1.248-0.673-0.997-2.064c0.251-1.391,0.97-2.063,1.741-2.063c0.341,0,0.624,0.105,0.769,0.228l0.403-0.688c-0.227-0.167-0.645-0.287-1.127-0.287c-1.18,0-2.327,0.907-2.672,2.82c-0.346,1.912,0.475,2.819,1.654,2.819C85.977,43.685,86.421,43.564,86.708,43.398L86.708,43.398z"/>
<path fill="#F58220" d="M97.115,43.602l0.513-2.843c0.146-0.81-0.308-1.316-1.177-1.316c-0.605,0-1.137,0.221-1.434,0.438c-0.185-0.234-0.578-0.438-1.222-0.438c-0.552,0-1.088,0.121-1.519,0.287l-0.699,3.872h0.824l0.609-3.372c0.188-0.076,0.438-0.122,0.717-0.122c0.506,0,0.787,0.25,0.713,0.658l-0.512,2.836h0.832l0.581-3.222c0.197-0.174,0.479-0.272,0.798-0.272c0.469,0,0.73,0.267,0.646,0.734l-0.497,2.76H97.115L97.115,43.602z"/>
<path fill="#F58220" d="M101.363,43.398l0.699-3.872h-0.824l-0.606,3.365c-0.147,0.062-0.43,0.113-0.747,0.113c-0.544,0-0.779-0.249-0.686-0.771l0.488-2.707h-0.824l-0.485,2.692c-0.185,1.021,0.312,1.467,1.384,1.467C100.381,43.685,101,43.564,101.363,43.398L101.363,43.398z"/>
<path fill="#F58220" d="M105.6,43.602l0.504-2.798c0.155-0.862-0.307-1.361-1.447-1.361c-0.637,0-1.18,0.121-1.617,0.287l-0.698,3.872h0.824l0.608-3.372c0.178-0.067,0.468-0.122,0.771-0.122c0.565,0,0.802,0.296,0.715,0.771l-0.491,2.723H105.6L105.6,43.602z"/>
<path fill="#F58220" d="M108.496,38.316c0.047-0.257-0.135-0.469-0.407-0.469c-0.271,0-0.528,0.212-0.575,0.469c-0.047,0.259,0.135,0.471,0.407,0.471C108.191,38.786,108.45,38.574,108.496,38.316L108.496,38.316z"/>
<polygon fill="#F58220" points="107.467,43.602 108.202,39.526 107.37,39.526 106.635,43.602 "/>
<path fill="#F58220" d="M111.223,43.406l-0.162-0.613c-0.188,0.122-0.451,0.197-0.701,0.197c-0.528,0-0.963-0.438-0.783-1.438c0.181-0.999,0.757-1.43,1.302-1.43c0.249,0,0.485,0.075,0.63,0.196l0.381-0.598c-0.221-0.167-0.548-0.28-0.994-0.28c-0.906,0-1.908,0.644-2.174,2.117c-0.267,1.476,0.502,2.125,1.408,2.125C110.575,43.685,110.934,43.58,111.223,43.406L111.223,43.406z"/>
<path fill="#F58220" d="M118.732,43.406l-0.162-0.613c-0.188,0.122-0.451,0.197-0.7,0.197c-0.529,0-0.966-0.438-0.785-1.438s0.758-1.43,1.302-1.43c0.25,0,0.485,0.075,0.631,0.196l0.381-0.598c-0.222-0.167-0.549-0.28-0.994-0.28c-0.907,0-1.907,0.644-2.174,2.117c-0.267,1.476,0.502,2.125,1.408,2.125C118.084,43.685,118.443,43.58,118.732,43.406L118.732,43.406z"/>
<path fill="#F58220" d="M118.042,44.547c0.058-0.312-0.13-0.537-0.81-0.537c-0.123,0-0.268,0.008-0.42,0.022l-0.232,0.324c0.161-0.015,0.307-0.021,0.427-0.021c0.304,0,0.443,0.061,0.416,0.212c-0.032,0.182-0.344,0.271-0.769,0.271c-0.12,0-0.247-0.008-0.381-0.022l-0.254,0.354c0.215,0.023,0.41,0.038,0.599,0.038C117.434,45.19,117.965,44.971,118.042,44.547L118.042,44.547z"/>
<path fill="#F58220" d="M123.05,38.286l-0.358-0.234c-0.078,0.227-0.229,0.386-0.416,0.386c-0.272,0-0.33-0.354-0.724-0.354c-0.362,0-0.644,0.303-0.768,0.695l0.35,0.242c0.078-0.228,0.229-0.394,0.418-0.394c0.272,0,0.337,0.362,0.729,0.362C122.645,38.99,122.927,38.679,123.05,38.286L123.05,38.286z"/>
<path fill="#F58220" d="M134.77,38.127h-0.922l-1.77,3.811c-0.159,0.341-0.305,0.766-0.305,0.766h-0.016c0,0,0.001-0.425-0.035-0.766l-0.388-3.811h-0.931l0.744,5.475h0.908L134.77,38.127L134.77,38.127z"/>
<path fill="#F58220" d="M136.346,38.316c0.047-0.257-0.134-0.469-0.406-0.469c-0.271,0-0.529,0.212-0.576,0.469c-0.045,0.259,0.136,0.471,0.408,0.471C136.042,38.786,136.3,38.574,136.346,38.316L136.346,38.316z"/>
<polygon fill="#F58220" points="135.318,43.602 136.053,39.526 135.221,39.526 134.486,43.602 "/>
<path fill="#F58220" d="M139.173,42.475c0.144-0.794-0.442-1.028-0.971-1.24c-0.374-0.149-0.653-0.278-0.586-0.649c0.053-0.294,0.336-0.521,0.767-0.521c0.295,0,0.635,0.129,0.797,0.242l0.359-0.575c-0.257-0.166-0.645-0.287-1.135-0.287c-0.907,0-1.514,0.47-1.635,1.143c-0.14,0.765,0.429,1.014,0.937,1.218c0.39,0.151,0.673,0.295,0.606,0.665c-0.062,0.341-0.396,0.561-0.844,0.561c-0.31,0-0.73-0.137-0.92-0.266l-0.394,0.636c0.266,0.159,0.741,0.287,1.218,0.287C138.395,43.685,139.042,43.208,139.173,42.475L139.173,42.475z"/>
<path fill="#F58220" d="M143.052,43.398l0.698-3.872h-0.824l-0.605,3.365c-0.146,0.062-0.43,0.113-0.746,0.113c-0.545,0-0.779-0.249-0.686-0.771l0.487-2.707h-0.824l-0.485,2.692c-0.185,1.021,0.311,1.467,1.385,1.467C142.07,43.685,142.689,43.564,143.052,43.398L143.052,43.398z"/>
<polygon fill="#F58220" points="148.93,43.602 150,37.667 149.168,37.667 148.098,43.602 "/>
<path fill="#FFFFFF" d="M41.021,28.935h-5.589l1.279-8.053c0.098-0.619,0.102-1.048,0.01-1.287c-0.091-0.24-0.307-0.359-0.646-0.359c-0.627,0-1.029,0.555-1.205,1.661l-1.277,8.038h-5.588l1.279-8.053c0.098-0.619,0.099-1.048,0.002-1.287c-0.097-0.24-0.314-0.359-0.652-0.359c-0.618,0-1.015,0.555-1.19,1.661l-1.276,8.038H20.58l1.459-9.19c0.266-1.677,1.055-3.102,2.367-4.273c1.312-1.173,2.77-1.759,4.374-1.759c1.654,0,3.027,0.699,4.12,2.096c1.687-1.396,3.262-2.096,4.726-2.096c1.863,0,3.249,0.678,4.159,2.036c0.719,1.057,0.917,2.599,0.595,4.625L41.021,28.935z"/>
<path fill="#FFFFFF" d="M53.46,23.337l-0.92,5.792c-0.472,0.08-0.896,0.12-1.274,0.12c-2.242,0-3.993-0.738-5.251-2.215c-1.261-1.479-1.713-3.329-1.36-5.555c0.344-2.166,1.39-4.001,3.138-5.508c1.749-1.507,3.704-2.261,5.866-2.261c2.41,0,4.198,0.706,5.364,2.118c1.165,1.412,1.554,3.341,1.166,5.785l-1.162,7.319h-5.589l1.098-6.916c0.125-0.788,0.034-1.417-0.275-1.885c-0.309-0.469-0.788-0.704-1.435-0.704c-0.588,0-1.131,0.214-1.626,0.645c-0.497,0.429-0.792,0.938-0.885,1.526c-0.098,0.619,0.015,1.127,0.34,1.527c0.325,0.397,0.786,0.599,1.384,0.599C52.527,23.726,53,23.596,53.46,23.337z"/>
<path fill="#FFFFFF" d="M72.17,14.011h5.589l-0.521,3.278c-0.149,0.938-0.406,1.692-0.772,2.268c-0.364,0.574-0.916,1.081-1.652,1.521c0.604,0.458,0.997,0.962,1.179,1.511c0.182,0.549,0.202,1.268,0.062,2.155l-0.666,4.19H69.8l0.715-4.506c0.163-1.027-0.114-1.541-0.832-1.541c-0.697,0-1.116,0.444-1.257,1.331l-0.749,4.716h-5.589l0.633-3.981c0.146-0.917,0.432-1.666,0.856-2.245c0.426-0.579,1.093-1.122,2-1.63c-0.741-0.54-1.23-1.109-1.47-1.707c-0.238-0.6-0.284-1.363-0.137-2.291l0.487-3.069h5.589l-0.6,3.772c-0.062,0.389-0.013,0.708,0.147,0.958c0.16,0.25,0.394,0.375,0.703,0.375c0.707,0,1.132-0.444,1.272-1.332L72.17,14.011z"/>
<path fill="#F58220" d="M89.675,39.443c-1.157,0-1.956,0.907-2.174,2.117c-0.219,1.21,0.251,2.125,1.408,2.125s1.958-0.915,2.176-2.125C91.305,40.35,90.833,39.443,89.675,39.443z M90.255,41.553c-0.157,0.877-0.581,1.459-1.224,1.459c-0.645,0-0.855-0.582-0.697-1.459s0.579-1.452,1.223-1.452S90.414,40.676,90.255,41.553z"/>
<path fill="#F58220" d="M114.184,39.443c-0.545,0-1.123,0.145-1.474,0.287l0.108,0.567c0.295-0.129,0.787-0.249,1.173-0.249c0.521,0,0.829,0.182,0.735,0.695L114.682,41c-1.246,0.067-2.492,0.271-2.697,1.406c-0.145,0.802,0.359,1.277,1.531,1.277c0.575,0,1.196-0.128,1.521-0.287l0.464-2.57C115.682,39.822,115.159,39.443,114.184,39.443z M114.324,42.982c-0.139,0.062-0.457,0.106-0.723,0.106c-0.627,0-0.912-0.267-0.834-0.696c0.131-0.726,0.975-0.794,1.814-0.839L114.324,42.982z"/>
<path fill="#F58220" d="M121.693,39.443c-0.545,0-1.123,0.145-1.475,0.287l0.109,0.567c0.296-0.129,0.785-0.249,1.172-0.249c0.521,0,0.829,0.182,0.736,0.695L122.191,41c-1.246,0.067-2.492,0.271-2.696,1.406c-0.146,0.802,0.358,1.277,1.53,1.277c0.574,0,1.195-0.128,1.52-0.287l0.464-2.57C123.189,39.822,122.668,39.443,121.693,39.443z M121.833,42.982c-0.14,0.062-0.457,0.106-0.722,0.106c-0.629,0-0.913-0.267-0.836-0.696c0.132-0.726,0.977-0.794,1.815-0.839L121.833,42.982z"/>
<path fill="#F58220" d="M125.913,39.443c-1.157,0-1.956,0.907-2.175,2.117s0.252,2.125,1.408,2.125c1.158,0,1.957-0.915,2.177-2.125C127.541,40.35,127.068,39.443,125.913,39.443z M126.493,41.553c-0.158,0.877-0.581,1.459-1.226,1.459c-0.643,0-0.854-0.582-0.695-1.459s0.578-1.452,1.222-1.452S126.65,40.676,126.493,41.553z"/>
<path fill="#F58220" d="M146.247,39.443c-0.545,0-1.123,0.145-1.474,0.287l0.108,0.567c0.295-0.129,0.786-0.249,1.173-0.249c0.521,0,0.828,0.182,0.735,0.695L146.745,41c-1.245,0.067-2.492,0.271-2.696,1.406c-0.145,0.802,0.358,1.277,1.531,1.277c0.574,0,1.195-0.128,1.52-0.287l0.463-2.57C147.744,39.822,147.221,39.443,146.247,39.443z M146.387,42.982c-0.14,0.062-0.457,0.106-0.723,0.106c-0.628,0-0.913-0.267-0.835-0.696c0.131-0.726,0.976-0.794,1.815-0.839L146.387,42.982z"/>
</svg>
